# xmcd
#
# Track frame offsets: 
#        150
#        10682
#        21965
#        29920
#        38361
#        49280
#        59683
#        68933
#        82212
#        92191
#
# Disc length: 1358 seconds
#
# Revision: 0
# Processed by: cddbd v1.5.2PL0 Copyright (c) Steve Scherf et al.
# Submitted via: ExactAudioCopy v1.3
#
DISCID=89054c0a
DTITLE=Porter Wagoner - Today
DYEAR=1979
DGENRE=Country
TTITLE0=I'm Gonna Feed 'Em Now
TTITLE1=Ole Slew Foot
TTITLE2=I'm Gonna Act Right
TTITLE3=Tennessee Saturday Night
TTITLE4=High Country
TTITLE5=Banks Of The Ohio
TTITLE6=I Couldn't Care Less
TTITLE7=I Guess I'm Crazy
TTITLE8=Your Old Love Letters
TTITLE9=All I Need
EXTD=
EXTT0=
EXTT1=
EXTT2=
EXTT3=
EXTT4=
EXTT5=
EXTT6=
EXTT7=
EXTT8=
EXTT9=
PLAYORDER=
